<svg xmlns="http://www.w3.org/2000/svg" width="1020" height="600"><rect width="1020" height="600" x="0" y="0" fill="#FFFFFF" id="background"/><g id="viz" transform="translate(34,44)"><g id="lines" fill="none"><path d="M0,0L343,107.4L686,31.588235294117645" stroke="#ff7f0e" stroke-width="3" stroke-opacity="1"/><path d="M0,94.56603773584905L343,537L686,63.17647058823529" stroke="#8c564b" stroke-width="3" stroke-opacity="1"/><path d="M0,206.0188679245283L343,214.8L686,0" stroke="#e377c2" stroke-width="3" stroke-opacity="1"/><path d="M0,84.43396226415094L343,322.2L686,189.52941176470588" stroke="#9467bd" stroke-width="3" stroke-opacity="1"/><path d="M0,195.88679245283018L343,0L686,252.70588235294116" stroke="#1f77b4" stroke-width="3" stroke-opacity="1"/><path d="M0,395.1509433962264L343,0L686,379.05882352941177" stroke="#2ca02c" stroke-width="3" stroke-opacity="1"/><path d="M0,537L343,214.8L686,537" stroke="#d62728" stroke-width="3" stroke-opacity="1"/></g><g><g transform="translate(0,0)" fill="none" font-size="10" font-family="sans-serif" text-anchor="end"><path class="domain" stroke="currentColor" d="M-6,0H0V537H-6"/><g class="tick" opacity="1" transform="translate(0,6.754716981132076)"><line stroke="currentColor" x2="-6"/><text fill="currentColor" x="-9" dy="0.32em">60</text></g><g class="tick" opacity="1" transform="translate(0,74.30188679245283)"><line stroke="currentColor" x2="-6"/><text fill="currentColor" x="-9" dy="0.32em">80</text></g><g class="tick" opacity="1" transform="translate(0,141.8490566037736)"><line stroke="currentColor" x2="-6"/><text fill="currentColor" x="-9" dy="0.32em">100</text></g><g class="tick" opacity="1" transform="translate(0,209.39622641509436)"><line stroke="currentColor" x2="-6"/><text fill="currentColor" x="-9" dy="0.32em">120</text></g><g class="tick" opacity="1" transform="translate(0,276.9433962264151)"><line stroke="currentColor" x2="-6"/><text fill="currentColor" x="-9" dy="0.32em">140</text></g><g class="tick" opacity="1" transform="translate(0,344.49056603773585)"><line stroke="currentColor" x2="-6"/><text fill="currentColor" x="-9" dy="0.32em">160</text></g><g class="tick" opacity="1" transform="translate(0,412.0377358490566)"><line stroke="currentColor" x2="-6"/><text fill="currentColor" x="-9" dy="0.32em">180</text></g><g class="tick" opacity="1" transform="translate(0,479.5849056603774)"><line stroke="currentColor" x2="-6"/><text fill="currentColor" x="-9" dy="0.32em">200</text></g><text y="-6" text-anchor="start" fill="currentColor">netflix_minutes</text></g><g transform="translate(343,0)" fill="none" font-size="10" font-family="sans-serif" text-anchor="end"><path class="domain" stroke="currentColor" d="M-6,0H0V537H-6"/><g class="tick" opacity="1" transform="translate(0,0)"><line stroke="currentColor" x2="-6"/><text fill="currentColor" x="-9" dy="0.32em">2.0</text></g><g class="tick" opacity="1" transform="translate(0,53.7)"><line stroke="currentColor" x2="-6"/><text fill="currentColor" x="-9" dy="0.32em">2.5</text></g><g class="tick" opacity="1" transform="translate(0,107.4)"><line stroke="currentColor" x2="-6"/><text fill="currentColor" x="-9" dy="0.32em">3.0</text></g><g class="tick" opacity="1" transform="translate(0,161.1)"><line stroke="currentColor" x2="-6"/><text fill="currentColor" x="-9" dy="0.32em">3.5</text></g><g class="tick" opacity="1" transform="translate(0,214.8)"><line stroke="currentColor" x2="-6"/><text fill="currentColor" x="-9" dy="0.32em">4.0</text></g><g class="tick" opacity="1" transform="translate(0,268.5)"><line stroke="currentColor" x2="-6"/><text fill="currentColor" x="-9" dy="0.32em">4.5</text></g><g class="tick" opacity="1" transform="translate(0,322.2)"><line stroke="currentColor" x2="-6"/><text fill="currentColor" x="-9" dy="0.32em">5.0</text></g><g class="tick" opacity="1" transform="translate(0,375.9)"><line stroke="currentColor" x2="-6"/><text fill="currentColor" x="-9" dy="0.32em">5.5</text></g><g class="tick" opacity="1" transform="translate(0,429.6)"><line stroke="currentColor" x2="-6"/><text fill="currentColor" x="-9" dy="0.32em">6.0</text></g><g class="tick" opacity="1" transform="translate(0,483.3)"><line stroke="currentColor" x2="-6"/><text fill="currentColor" x="-9" dy="0.32em">6.5</text></g><g class="tick" opacity="1" transform="translate(0,537)"><line stroke="currentColor" x2="-6"/><text fill="currentColor" x="-9" dy="0.32em">7.0</text></g><text y="-6" text-anchor="start" fill="currentColor">ml_purchases_total</text></g><g transform="translate(686,0)" fill="none" font-size="10" font-family="sans-serif" text-anchor="end"><path class="domain" stroke="currentColor" d="M-6,0H0V537H-6"/><g class="tick" opacity="1" transform="translate(0,31.588235294117645)"><line stroke="currentColor" x2="-6"/><text fill="currentColor" x="-9" dy="0.32em">26</text></g><g class="tick" opacity="1" transform="translate(0,94.76470588235294)"><line stroke="currentColor" x2="-6"/><text fill="currentColor" x="-9" dy="0.32em">28</text></g><g class="tick" opacity="1" transform="translate(0,157.94117647058823)"><line stroke="currentColor" x2="-6"/><text fill="currentColor" x="-9" dy="0.32em">30</text></g><g class="tick" opacity="1" transform="translate(0,221.1176470588235)"><line stroke="currentColor" x2="-6"/><text fill="currentColor" x="-9" dy="0.32em">32</text></g><g class="tick" opacity="1" transform="translate(0,284.29411764705884)"><line stroke="currentColor" x2="-6"/><text fill="currentColor" x="-9" dy="0.32em">34</text></g><g class="tick" opacity="1" transform="translate(0,347.47058823529414)"><line stroke="currentColor" x2="-6"/><text fill="currentColor" x="-9" dy="0.32em">36</text></g><g class="tick" opacity="1" transform="translate(0,410.6470588235294)"><line stroke="currentColor" x2="-6"/><text fill="currentColor" x="-9" dy="0.32em">38</text></g><g class="tick" opacity="1" transform="translate(0,473.8235294117647)"><line stroke="currentColor" x2="-6"/><text fill="currentColor" x="-9" dy="0.32em">40</text></g><g class="tick" opacity="1" transform="translate(0,537)"><line stroke="currentColor" x2="-6"/><text fill="currentColor" x="-9" dy="0.32em">42</text></g><text y="-6" text-anchor="start" fill="currentColor">music_minutes</text></g></g></g><g id="legend" transform="translate(820,44)"><g transform="translate(5,0)"><g class="legendColor" transform="translate(0,0)"><g class="legendCells" transform="translate(0,16)"><g class="cell" transform="translate(0, 0)"><rect class="swatch" height="15" width="15" style="fill: rgb(31, 119, 180);"/><text class="label" transform="translate( 20, 12.5)" font-family="&quot;Arial&quot;, sans-serif" font-size="10px"><tspan x="0" dy="0em">Friday</tspan></text></g><g class="cell" transform="translate(0, 21)"><rect class="swatch" height="15" width="15" style="fill: rgb(255, 127, 14);"/><text class="label" transform="translate( 20, 12.5)" font-family="&quot;Arial&quot;, sans-serif" font-size="10px"><tspan x="0" dy="0em">Monday</tspan></text></g><g class="cell" transform="translate(0, 42)"><rect class="swatch" height="15" width="15" style="fill: rgb(44, 160, 44);"/><text class="label" transform="translate( 20, 12.5)" font-family="&quot;Arial&quot;, sans-serif" font-size="10px"><tspan x="0" dy="0em">Saturday</tspan></text></g><g class="cell" transform="translate(0, 63)"><rect class="swatch" height="15" width="15" style="fill: rgb(214, 39, 40);"/><text class="label" transform="translate( 20, 12.5)" font-family="&quot;Arial&quot;, sans-serif" font-size="10px"><tspan x="0" dy="0em">Sunday</tspan></text></g><g class="cell" transform="translate(0, 84)"><rect class="swatch" height="15" width="15" style="fill: rgb(148, 103, 189);"/><text class="label" transform="translate( 20, 12.5)" font-family="&quot;Arial&quot;, sans-serif" font-size="10px"><tspan x="0" dy="0em">Thursday</tspan></text></g><g class="cell" transform="translate(0, 105)"><rect class="swatch" height="15" width="15" style="fill: rgb(140, 86, 75);"/><text class="label" transform="translate( 20, 12.5)" font-family="&quot;Arial&quot;, sans-serif" font-size="10px"><tspan x="0" dy="0em">Tuesday</tspan></text></g><g class="cell" transform="translate(0, 126)"><rect class="swatch" height="15" width="15" style="fill: rgb(227, 119, 194);"/><text class="label" transform="translate( 20, 12.5)" font-family="&quot;Arial&quot;, sans-serif" font-size="10px"><tspan x="0" dy="0em">Wednesday</tspan></text></g></g><text class="legendTitle" font-family="&quot;Arial&quot;, sans-serif" font-size="12px" font-weight="bold"><tspan x="0" dy="0em">weekday</tspan></text></g></g></g></svg>